<svg xmlns="http://www.w3.org/2000/svg" xmlns:xlink="http://www.w3.org/1999/xlink" width="1080" height="1920" viewBox="0 0 1080 1920"><rect width="100%" height="100%" fill="#DDDDDD"/><path d="M249.17 991.47L264.38 991.47L264.38 1002.30L217.58 1002.30L217.58 991.47L234.72 991.47L234.72 942.16Q234.72 939.23 234.89 936.13L234.89 936.13L222.73 946.31Q221.67 947.13 220.65 947.33Q219.62 947.54 218.72 947.36Q217.81 947.19 217.11 946.75Q216.41 946.31 216.06 945.78L216.06 945.78L211.49 939.53L237.29 917.59L249.17 917.59L249.17 991.47ZM336.62 960L336.62 960Q336.62 971.06 334.26 979.22Q331.89 987.38 327.70 992.70Q323.52 998.03 317.82 1000.63Q312.11 1003.23 305.50 1003.23L305.50 1003.23Q298.89 1003.23 293.25 1000.63Q287.60 998.03 283.45 992.70Q279.29 987.38 276.95 979.22Q274.61 971.06 274.61 960L274.61 960Q274.61 948.89 276.95 940.75Q279.29 932.62 283.45 927.30Q287.60 921.98 293.25 919.37Q298.89 916.77 305.50 916.77L305.50 916.77Q312.11 916.77 317.82 919.37Q323.52 921.98 327.70 927.30Q331.89 932.62 334.26 940.75Q336.62 948.89 336.62 960ZM321.71 960L321.71 960Q321.71 950.82 320.36 944.79Q319.02 938.76 316.76 935.20Q314.51 931.63 311.59 930.19Q308.66 928.76 305.50 928.76L305.50 928.76Q302.40 928.76 299.51 930.19Q296.61 931.63 294.39 935.20Q292.16 938.76 290.85 944.79Q289.53 950.82 289.53 960L289.53 960Q289.53 969.18 290.85 975.21Q292.16 981.24 294.39 984.80Q296.61 988.37 299.51 989.81Q302.40 991.24 305.50 991.24L305.50 991.24Q308.66 991.24 311.59 989.81Q314.51 988.37 316.76 984.80Q319.02 981.24 320.36 975.21Q321.71 969.18 321.71 960ZM373.48 991.94L373.48 991.94Q377.05 991.94 379.74 990.92Q382.43 989.89 384.27 988.08Q386.12 986.27 387.05 983.75Q387.99 981.24 387.99 978.31L387.99 978.31Q387.99 971.35 384.13 967.78Q380.27 964.21 373.48 964.21L373.48 964.21Q366.69 964.21 362.83 967.78Q358.97 971.35 358.97 978.31L358.97 978.31Q358.97 981.24 359.91 983.75Q360.84 986.27 362.69 988.08Q364.53 989.89 367.22 990.92Q369.91 991.94 373.48 991.94ZM373.48 927.65L373.48 927.65Q370.26 927.65 367.92 928.64Q365.58 929.64 364.03 931.31Q362.48 932.97 361.75 935.14Q361.02 937.30 361.02 939.70L361.02 939.70Q361.02 942.22 361.63 944.59Q362.25 946.95 363.71 948.80Q365.17 950.64 367.57 951.75Q369.97 952.86 373.48 952.86L373.48 952.86Q376.99 952.86 379.39 951.75Q381.79 950.64 383.25 948.80Q384.71 946.95 385.33 944.59Q385.94 942.22 385.94 939.70L385.94 939.70Q385.94 937.30 385.18 935.14Q384.42 932.97 382.90 931.31Q381.38 929.64 379.04 928.64Q376.70 927.65 373.48 927.65ZM387.75 958.19L387.75 958.19Q395.48 960.70 399.16 965.88Q402.85 971.06 402.85 978.54L402.85 978.54Q402.85 984.16 400.71 988.72Q398.58 993.29 394.72 996.50Q390.85 999.72 385.44 1001.48Q380.03 1003.23 373.48 1003.23L373.48 1003.23Q366.93 1003.23 361.52 1001.48Q356.11 999.72 352.24 996.50Q348.38 993.29 346.25 988.72Q344.11 984.16 344.11 978.54L344.11 978.54Q344.11 971.06 347.80 965.88Q351.48 960.70 359.21 958.19L359.21 958.19Q353.06 955.61 349.99 950.87Q346.92 946.14 346.92 939.47L346.92 939.47Q346.92 934.67 348.88 930.52Q350.84 926.36 354.35 923.29Q357.86 920.22 362.75 918.49Q367.63 916.77 373.48 916.77L373.48 916.77Q379.33 916.77 384.21 918.49Q389.10 920.22 392.61 923.29Q396.12 926.36 398.08 930.52Q400.04 934.67 400.04 939.47L400.04 939.47Q400.04 946.14 396.97 950.87Q393.90 955.61 387.75 958.19ZM472.34 960L472.34 960Q472.34 971.06 469.98 979.22Q467.61 987.38 463.42 992.70Q459.24 998.03 453.54 1000.63Q447.83 1003.23 441.22 1003.23L441.22 1003.23Q434.61 1003.23 428.97 1000.63Q423.32 998.03 419.17 992.70Q415.01 987.38 412.67 979.22Q410.33 971.06 410.33 960L410.33 960Q410.33 948.89 412.67 940.75Q415.01 932.62 419.17 927.30Q423.32 921.98 428.97 919.37Q434.61 916.77 441.22 916.77L441.22 916.77Q447.83 916.77 453.54 919.37Q459.24 921.98 463.42 927.30Q467.61 932.62 469.98 940.75Q472.34 948.89 472.34 960ZM457.43 960L457.43 960Q457.43 950.82 456.08 944.79Q454.74 938.76 452.48 935.20Q450.23 931.63 447.31 930.19Q444.38 928.76 441.22 928.76L441.22 928.76Q438.12 928.76 435.23 930.19Q432.33 931.63 430.11 935.20Q427.88 938.76 426.57 944.79Q425.25 950.82 425.25 960L425.25 960Q425.25 969.18 426.57 975.21Q427.88 981.24 430.11 984.80Q432.33 988.37 435.23 989.81Q438.12 991.24 441.22 991.24L441.22 991.24Q444.38 991.24 447.31 989.81Q450.23 988.37 452.48 984.80Q454.74 981.24 456.08 975.21Q457.43 969.18 457.43 960ZM565.24 982.93L557.58 990.48L537.75 970.65L517.74 990.60L510.08 983.05L530.08 962.98L511.01 943.91L518.62 936.31L537.69 955.38L556.64 936.42L564.37 944.03L545.35 963.04L565.24 982.93ZM645.33 991.47L660.54 991.47L660.54 1002.30L613.74 1002.30L613.74 991.47L630.88 991.47L630.88 942.16Q630.88 939.23 631.06 936.13L631.06 936.13L618.89 946.31Q617.83 947.13 616.81 947.33Q615.79 947.54 614.88 947.36Q613.97 947.19 613.27 946.75Q612.57 946.31 612.22 945.78L612.22 945.78L607.66 939.53L633.45 917.59L645.33 917.59L645.33 991.47ZM687.16 943.09L687.16 943.09Q687.16 950.17 690.81 953.89Q694.47 957.60 701.20 957.60L701.20 957.60Q704.71 957.60 707.46 956.49Q710.21 955.38 712.08 953.45Q713.95 951.52 714.92 948.89Q715.88 946.25 715.88 943.21L715.88 943.21Q715.88 939.76 714.83 937.04Q713.77 934.32 711.84 932.45Q709.91 930.57 707.25 929.58Q704.59 928.59 701.43 928.59L701.43 928.59Q698.15 928.59 695.52 929.67Q692.89 930.75 691.02 932.68Q689.15 934.61 688.15 937.27Q687.16 939.93 687.16 943.09ZM680.08 1002.30L706.34 969.48Q707.34 968.25 708.22 967.08Q709.09 965.91 709.91 964.74L709.91 964.74Q706.99 966.61 703.48 967.58Q699.97 968.54 696.11 968.54L696.11 968.54Q691.72 968.54 687.51 967.02Q683.30 965.50 680.02 962.43Q676.74 959.36 674.73 954.82Q672.71 950.29 672.71 944.21L672.71 944.21Q672.71 938.53 674.81 933.56Q676.92 928.59 680.72 924.84Q684.52 921.10 689.85 918.93Q695.17 916.77 701.61 916.77L701.61 916.77Q708.10 916.77 713.28 918.82Q718.45 920.86 722.11 924.55Q725.77 928.23 727.73 933.38Q729.69 938.53 729.69 944.67L729.69 944.67Q729.69 948.59 729.01 952.10Q728.34 955.61 727.11 958.86Q725.88 962.11 724.13 965.21Q722.37 968.31 720.21 971.35L720.21 971.35L700.85 998.96Q699.85 1000.37 697.86 1001.33Q695.87 1002.30 693.36 1002.30L693.36 1002.30L680.08 1002.30ZM771.40 988.84L793.10 988.84Q795.44 988.84 796.82 990.16Q798.19 991.47 798.19 993.64L798.19 993.64L798.19 1002.30L740.16 1002.30L740.16 997.50Q740.16 996.04 740.77 994.43Q741.39 992.82 742.73 991.53L742.73 991.53L768.41 965.79Q771.63 962.52 774.18 959.53Q776.72 956.55 778.42 953.62Q780.11 950.70 781.02 947.69Q781.93 944.67 781.93 941.34L781.93 941.34Q781.93 938.30 781.05 935.99Q780.17 933.68 778.56 932.10Q776.95 930.52 774.70 929.73Q772.45 928.94 769.64 928.94L769.64 928.94Q767.07 928.94 764.87 929.67Q762.68 930.40 760.98 931.72Q759.29 933.03 758.12 934.79Q756.95 936.54 756.36 938.65L756.36 938.65Q755.37 941.34 753.79 942.22Q752.21 943.09 749.23 942.63L749.23 942.63L741.62 941.28Q742.50 935.20 745.01 930.60Q747.53 926.01 751.30 922.94Q755.08 919.87 759.96 918.32Q764.84 916.77 770.46 916.77L770.46 916.77Q776.31 916.77 781.17 918.49Q786.02 920.22 789.47 923.38Q792.92 926.54 794.86 930.98Q796.79 935.43 796.79 940.87L796.79 940.87Q796.79 945.55 795.41 949.53Q794.04 953.51 791.73 957.13Q789.41 960.76 786.31 964.15Q783.21 967.55 779.82 971.06L779.82 971.06L760.75 990.54Q763.50 989.72 766.22 989.28Q768.94 988.84 771.40 988.84L771.40 988.84ZM868.51 960L868.51 960Q868.51 971.06 866.14 979.22Q863.77 987.38 859.59 992.70Q855.40 998.03 849.70 1000.63Q844.00 1003.23 837.38 1003.23L837.38 1003.23Q830.77 1003.23 825.13 1000.63Q819.48 998.03 815.33 992.70Q811.18 987.38 808.84 979.22Q806.50 971.06 806.50 960L806.50 960Q806.50 948.89 808.84 940.75Q811.18 932.62 815.33 927.30Q819.48 921.98 825.13 919.37Q830.77 916.77 837.38 916.77L837.38 916.77Q844.00 916.77 849.70 919.37Q855.40 921.98 859.59 927.30Q863.77 932.62 866.14 940.75Q868.51 948.89 868.51 960ZM853.59 960L853.59 960Q853.59 950.82 852.24 944.79Q850.90 938.76 848.65 935.20Q846.39 931.63 843.47 930.19Q840.54 928.76 837.38 928.76L837.38 928.76Q834.28 928.76 831.39 930.19Q828.49 931.63 826.27 935.20Q824.05 938.76 822.73 944.79Q821.41 950.82 821.41 960L821.41 960Q821.41 969.18 822.73 975.21Q824.05 981.24 826.27 984.80Q828.49 988.37 831.39 989.81Q834.28 991.24 837.38 991.24L837.38 991.24Q840.54 991.24 843.47 989.81Q846.39 988.37 848.65 984.80Q850.90 981.24 852.24 975.21Q853.59 969.18 853.59 960Z" fill="#999999"/></svg>