<svg xmlns="http://www.w3.org/2000/svg" xmlns:xlink="http://www.w3.org/1999/xlink" width="300" height="200" viewBox="0 0 300 200"><rect width="100%" height="100%" fill="#DDDDDD"/><path d="M61.52 93.91L58.86 93.44Q59.16 91.31 60.05 89.70Q60.93 88.09 62.25 87.01Q63.57 85.94 65.28 85.39Q67.00 84.85 68.96 84.85L68.96 84.85Q71.01 84.85 72.66 85.43Q74.31 86.02 75.48 87.05Q76.65 88.09 77.28 89.48Q77.90 90.88 77.90 92.50L77.90 92.50Q77.90 93.91 77.58 94.99Q77.27 96.06 76.67 96.86Q76.08 97.66 75.20 98.22Q74.31 98.77 73.21 99.14L73.21 99.14Q75.87 99.98 77.18 101.70Q78.50 103.42 78.50 106.03L78.50 106.03Q78.50 108.24 77.68 109.94Q76.86 111.64 75.46 112.80Q74.07 113.96 72.23 114.56Q70.40 115.15 68.35 115.15L68.35 115.15Q66.11 115.15 64.45 114.64Q62.79 114.12 61.56 113.12Q60.33 112.12 59.47 110.66Q58.61 109.20 58.00 107.30L58.00 107.30L60.23 106.38Q61.11 106.01 61.88 106.18Q62.65 106.36 63.00 107.01L63.00 107.01Q63.37 107.73 63.81 108.43Q64.25 109.12 64.86 109.67Q65.48 110.21 66.31 110.55Q67.14 110.89 68.29 110.89L68.29 110.89Q69.58 110.89 70.54 110.47Q71.51 110.05 72.15 109.37Q72.80 108.69 73.11 107.86Q73.43 107.03 73.43 106.19L73.43 106.19Q73.43 105.13 73.21 104.25Q72.98 103.38 72.26 102.77Q71.55 102.15 70.20 101.80Q68.86 101.46 66.61 101.46L66.61 101.46L66.61 97.85Q68.47 97.83 69.70 97.50Q70.93 97.17 71.66 96.59Q72.39 96.00 72.67 95.18Q72.96 94.36 72.96 93.38L72.96 93.38Q72.96 91.29 71.79 90.20Q70.62 89.11 68.68 89.11L68.68 89.11Q67.77 89.11 67.02 89.37Q66.26 89.63 65.65 90.09Q65.05 90.55 64.64 91.16Q64.23 91.78 64.02 92.52L64.02 92.52Q63.67 93.46 63.11 93.77Q62.55 94.08 61.52 93.91L61.52 93.91ZM103.18 100L103.18 100Q103.18 103.87 102.35 106.73Q101.52 109.59 100.05 111.46Q98.59 113.33 96.59 114.24Q94.59 115.15 92.27 115.15L92.27 115.15Q89.96 115.15 87.98 114.24Q86.00 113.33 84.54 111.46Q83.09 109.59 82.27 106.73Q81.45 103.87 81.45 100L81.45 100Q81.45 96.11 82.27 93.26Q83.09 90.41 84.54 88.54Q86.00 86.67 87.98 85.76Q89.96 84.85 92.27 84.85L92.27 84.85Q94.59 84.85 96.59 85.76Q98.59 86.67 100.05 88.54Q101.52 90.41 102.35 93.26Q103.18 96.11 103.18 100ZM97.95 100L97.95 100Q97.95 96.78 97.48 94.67Q97.01 92.56 96.22 91.31Q95.43 90.06 94.40 89.56Q93.38 89.05 92.27 89.05L92.27 89.05Q91.19 89.05 90.17 89.56Q89.16 90.06 88.38 91.31Q87.60 92.56 87.14 94.67Q86.68 96.78 86.68 100L86.68 100Q86.68 103.22 87.14 105.33Q87.60 107.44 88.38 108.69Q89.16 109.94 90.17 110.44Q91.19 110.95 92.27 110.95L92.27 110.95Q93.38 110.95 94.40 110.44Q95.43 109.94 96.22 108.69Q97.01 107.44 97.48 105.33Q97.95 103.22 97.95 100ZM126.96 100L126.96 100Q126.96 103.87 126.13 106.73Q125.30 109.59 123.83 111.46Q122.37 113.33 120.37 114.24Q118.37 115.15 116.05 115.15L116.05 115.15Q113.74 115.15 111.76 114.24Q109.78 113.33 108.32 111.46Q106.87 109.59 106.05 106.73Q105.23 103.87 105.23 100L105.23 100Q105.23 96.11 106.05 93.26Q106.87 90.41 108.32 88.54Q109.78 86.67 111.76 85.76Q113.74 84.85 116.05 84.85L116.05 84.85Q118.37 84.85 120.37 85.76Q122.37 86.67 123.83 88.54Q125.30 90.41 126.13 93.26Q126.96 96.11 126.96 100ZM121.73 100L121.73 100Q121.73 96.78 121.26 94.67Q120.79 92.56 120.00 91.31Q119.21 90.06 118.18 89.56Q117.16 89.05 116.05 89.05L116.05 89.05Q114.97 89.05 113.95 89.56Q112.94 90.06 112.16 91.31Q111.38 92.56 110.92 94.67Q110.46 96.78 110.46 100L110.46 100Q110.46 103.22 110.92 105.33Q111.38 107.44 112.16 108.69Q112.94 109.94 113.95 110.44Q114.97 110.95 116.05 110.95L116.05 110.95Q117.16 110.95 118.18 110.44Q119.21 109.94 120.00 108.69Q120.79 107.44 121.26 105.33Q121.73 103.22 121.73 100ZM159.51 108.04L156.83 110.68L149.88 103.73L142.87 110.72L140.18 108.08L147.19 101.05L140.51 94.36L143.17 91.70L149.86 98.38L156.50 91.74L159.20 94.40L152.54 101.07L159.51 108.04ZM184.19 110.11L191.80 110.11Q192.62 110.11 193.10 110.57Q193.58 111.03 193.58 111.79L193.58 111.79L193.58 114.82L173.25 114.82L173.25 113.14Q173.25 112.63 173.46 112.06Q173.68 111.50 174.15 111.05L174.15 111.05L183.15 102.03Q184.28 100.88 185.17 99.84Q186.06 98.79 186.65 97.77Q187.25 96.74 187.57 95.68Q187.88 94.63 187.88 93.46L187.88 93.46Q187.88 92.39 187.58 91.58Q187.27 90.78 186.71 90.22Q186.14 89.67 185.35 89.39Q184.56 89.11 183.58 89.11L183.58 89.11Q182.68 89.11 181.91 89.37Q181.14 89.63 180.54 90.09Q179.95 90.55 179.54 91.16Q179.13 91.78 178.93 92.52L178.93 92.52Q178.58 93.46 178.02 93.77Q177.47 94.08 176.42 93.91L176.42 93.91L173.76 93.44Q174.07 91.31 174.95 89.70Q175.83 88.09 177.15 87.01Q178.47 85.94 180.19 85.39Q181.90 84.85 183.87 84.85L183.87 84.85Q185.92 84.85 187.62 85.46Q189.32 86.06 190.53 87.17Q191.74 88.27 192.41 89.83Q193.09 91.39 193.09 93.30L193.09 93.30Q193.09 94.94 192.61 96.33Q192.13 97.72 191.32 99.00Q190.51 100.27 189.42 101.46Q188.33 102.64 187.15 103.87L187.15 103.87L180.46 110.70Q181.43 110.41 182.38 110.26Q183.33 110.11 184.19 110.11L184.19 110.11ZM218.22 100L218.22 100Q218.22 103.87 217.39 106.73Q216.56 109.59 215.10 111.46Q213.63 113.33 211.63 114.24Q209.63 115.15 207.32 115.15L207.32 115.15Q205.00 115.15 203.02 114.24Q201.04 113.33 199.59 111.46Q198.13 109.59 197.31 106.73Q196.49 103.87 196.49 100L196.49 100Q196.49 96.11 197.31 93.26Q198.13 90.41 199.59 88.54Q201.04 86.67 203.02 85.76Q205.00 84.85 207.32 84.85L207.32 84.85Q209.63 84.85 211.63 85.76Q213.63 86.67 215.10 88.54Q216.56 90.41 217.39 93.26Q218.22 96.11 218.22 100ZM213.00 100L213.00 100Q213.00 96.78 212.53 94.67Q212.05 92.56 211.26 91.31Q210.47 90.06 209.45 89.56Q208.42 89.05 207.32 89.05L207.32 89.05Q206.23 89.05 205.22 89.56Q204.20 90.06 203.42 91.31Q202.64 92.56 202.18 94.67Q201.72 96.78 201.72 100L201.72 100Q201.72 103.22 202.18 105.33Q202.64 107.44 203.42 108.69Q204.20 109.94 205.22 110.44Q206.23 110.95 207.32 110.95L207.32 110.95Q208.42 110.95 209.45 110.44Q210.47 109.94 211.26 108.69Q212.05 107.44 212.53 105.33Q213.00 103.22 213.00 100ZM242.00 100L242.00 100Q242.00 103.87 241.17 106.73Q240.34 109.59 238.88 111.46Q237.41 113.33 235.41 114.24Q233.41 115.15 231.10 115.15L231.10 115.15Q228.78 115.15 226.80 114.24Q224.82 113.33 223.37 111.46Q221.91 109.59 221.09 106.73Q220.27 103.87 220.27 100L220.27 100Q220.27 96.11 221.09 93.26Q221.91 90.41 223.37 88.54Q224.82 86.67 226.80 85.76Q228.78 84.85 231.10 84.85L231.10 84.85Q233.41 84.85 235.41 85.76Q237.41 86.67 238.88 88.54Q240.34 90.41 241.17 93.26Q242.00 96.11 242.00 100ZM236.78 100L236.78 100Q236.78 96.78 236.31 94.67Q235.83 92.56 235.04 91.31Q234.25 90.06 233.23 89.56Q232.20 89.05 231.10 89.05L231.10 89.05Q230.01 89.05 229.00 89.56Q227.98 90.06 227.20 91.31Q226.42 92.56 225.96 94.67Q225.50 96.78 225.50 100L225.50 100Q225.50 103.22 225.96 105.33Q226.42 107.44 227.20 108.69Q227.98 109.94 229.00 110.44Q230.01 110.95 231.10 110.95L231.10 110.95Q232.20 110.95 233.23 110.44Q234.25 109.94 235.04 108.69Q235.83 107.44 236.31 105.33Q236.78 103.22 236.78 100Z" fill="#999999"/></svg>