<?xml version="1.0" encoding="UTF-8" standalone="no"?>
<svg
   xmlns:dc="http://purl.org/dc/elements/1.1/"
   xmlns:cc="http://creativecommons.org/ns#"
   xmlns:rdf="http://www.w3.org/1999/02/22-rdf-syntax-ns#"
   xmlns:svg="http://www.w3.org/2000/svg"
   xmlns="http://www.w3.org/2000/svg"
   xmlns:sodipodi="http://sodipodi.sourceforge.net/DTD/sodipodi-0.dtd"
   xmlns:inkscape="http://www.inkscape.org/namespaces/inkscape"
   xml:space="preserve"
   width="177.16534"
   height="51.253971"
   viewBox="0 0 177.16534 51.253971"
   color-interpolation-filters="sRGB"
   id="root"
   version="1.1"
   inkscape:version="0.48.3.1 r9886"
   sodipodi:docname="bristollogo_colour.svg"><metadata
   id="metadata3046"><rdf:RDF><cc:Work
       rdf:about=""><dc:format>image/svg+xml</dc:format><dc:type
         rdf:resource="http://purl.org/dc/dcmitype/StillImage" /></cc:Work></rdf:RDF></metadata><sodipodi:namedview
   pagecolor="#ffffff"
   bordercolor="#666666"
   borderopacity="1"
   objecttolerance="10"
   gridtolerance="10"
   guidetolerance="10"
   inkscape:pageopacity="0"
   inkscape:pageshadow="2"
   inkscape:window-width="1280"
   inkscape:window-height="965"
   id="namedview3044"
   showgrid="false"
   units="cm"
   inkscape:document-units="mm"
   fit-margin-top="0"
   fit-margin-left="0"
   fit-margin-right="0"
   fit-margin-bottom="0"
   inkscape:zoom="2.8246101"
   inkscape:cx="85.366172"
   inkscape:cy="41.779603"
   inkscape:window-x="0"
   inkscape:window-y="27"
   inkscape:window-maximized="1"
   inkscape:current-layer="root" />
 Converted with TEXTCAFE (tm) http://www.texterity.com 
  <defs
   id="defs2986">
    <style
   type="text/css"
   id="style2988">

clipPath{shape-rendering:crispEdges}
image{shape-rendering:crispEdges}

    </style>
    <clipPath
   id="id2">
      <rect
   width="741"
   height="215"
   y="0"
   x="0"
   id="rect2991" />
    </clipPath>
  
    
  
      
    
        
        
        
        
        
        
        
        
        
        
        
        
        
        
        
        
        
        
        
        
        
        
      </defs>
  <defs
   id="defs2993" />
  <path
   style="fill:#c5000c;fill-rule:nonzero;stroke:none"
   inkscape:connector-curvature="0"
   id="path3012"
   d="m 33.631434,22.93076 c -0.02203,-1.7593 -0.619239,-5.355485 -4.828437,-7.396388 4.274331,1.357968 6.33008,4.969238 6.540325,7.663623 4.487209,0.894377 8.4694,3.00616 14.935253,0.776324 l 0.02227,-0.01437 c 0,0 -8.508432,0.07758 -12.066543,-2.496593 1.837842,0.06944 3.952977,-0.346496 4.646209,-1.386942 0.738968,-1.108213 0.815116,-2.252824 2.635478,-2.311491 1.022727,-0.03304 4.490562,0.225809 4.854299,-4.866032 -1.10965,1.872564 -2.311491,2.646972 -4.126346,2.184578 -1.158499,-0.295252 -3.273395,-1.181727 -4.784855,0.624028 -1.248296,1.490868 -2.588784,2.265515 -4.727386,2.034198 0.855584,-1.155625 13.603865,-17.7067436 13.603865,-17.7067436 0,0 -16.331535,13.1067496 -17.232856,13.8696646 -0.173367,-2.392668 0.543092,-3.271001 1.502362,-4.3227016 C 35.389777,8.7213042 36.754689,7.5561001 35.668267,5.0971029 34.790173,3.1091201 34.905592,1.9070394 37.298259,-6.5152e-6 35.390974,0.1388793 32.480837,1.4216574 32.824939,4.9239745 33.033267,7.0391097 31.534498,7.2220558 30.987336,7.5242522 29.565672,8.3103938 29.380571,10.598897 29.334595,12.37879 29.172721,11.800977 27.10428,2.9065383 26.376087,0.02848902 26.375608,0.02992577 26.375848,23.959952 26.375848,23.959952 l 0.05484,0 c 2.77173,-1.091451 5.077234,-1.258354 7.20075,-1.029192" /><path
   id="path3036"
   style="fill:#000000;fill-rule:nonzero;stroke:none"
   d="m 170.30394,16.064772 -2.42069,0 0,6.141866 c 0,1.030868 0.40373,1.322289 1.65897,1.322289 l 0.85151,0 0,0.425996 -5.53603,0 0,-0.425996 c 1.29978,0 1.52439,-0.291421 1.52439,-1.546662 l 0,-5.917493 -1.65897,0 0,-0.380978 c 0.62714,-0.134576 1.16544,-0.3362 1.65897,-0.605111 0,-1.860591 0.40348,-3.272677 1.72625,-4.594966 1.09768,-1.0986344 2.15082,-1.591679 3.18216,-1.591679 1.25524,0 2.30886,0.7174171 2.30886,1.0536165 0,0.1793545 -0.426,1.0756465 -0.60511,1.0756465 -0.31441,0 -1.14341,-1.0979161 -2.62279,-1.0979161 -1.61347,0 -2.48821,1.2775101 -2.48821,3.4515521 l 0,1.703746 2.26408,0 0.15661,0.986089 m -14.47909,2.756883 c 0,-1.9274 1.36707,-3.451552 2.84596,-3.451552 1.88334,0 3.45227,2.174282 3.45227,4.729541 0,2.24109 -1.50164,3.586367 -2.82417,3.586367 -1.92788,0 -3.47406,-2.152012 -3.47406,-4.864356 z m -1.681,0.762436 c 0,2.622547 2.12903,4.639744 4.90842,4.639744 2.66732,0 4.75181,-2.039706 4.75181,-4.684523 0,-2.667566 -2.08449,-4.707271 -4.8191,-4.707271 -2.33089,0 -4.84113,1.658727 -4.84113,4.75205 m -7.67535,-2.017437 c 0.67192,-1.703506 0.24592,-2.039705 -1.07637,-2.084484 l 0,-0.403487 3.7207,0 0,0.403487 c -0.9188,0.112066 -1.43411,0.739687 -1.85963,1.793064 l -3.81074,9.5041 c -0.67264,1.658919 -1.18795,2.397863 -1.97218,2.397863 -0.53854,0 -0.91904,-0.335792 -0.91904,-0.784322 0,-0.918897 1.29906,-0.694979 1.85987,-1.255072 0.24641,-0.246882 0.58285,-0.829484 0.76196,-1.27751 l 0.6724,-1.681477 -3.4743,-7.374357 c -0.42528,-0.919041 -0.82877,-1.29978 -1.7708,-1.322289 l 0,-0.403487 4.50565,0 0,0.403487 c -1.36754,0.02251 -1.52367,0.425996 -1.07564,1.367067 l 2.53275,5.469467 1.90537,-4.75205 m -8.86667,-2.487971 -0.3587,0.986089 -2.84597,0 0,5.222825 c 0,1.412085 1.00836,1.882621 1.4789,1.882621 0.49304,0 0.94203,-0.380739 1.36707,-1.120665 l 0.3587,0.3362 c -0.53782,1.165443 -1.41184,1.838082 -2.44319,1.838082 -1.32253,0 -2.2636,-1.098396 -2.2636,-2.600039 l 0,-5.559024 -1.03135,0 0,-0.358709 c 0.87427,-0.425756 1.63646,-1.456864 2.15202,-2.84668 l 0.38145,0 0,2.2193 3.20467,0 m -8.00126,7.172494 c 0,0.784705 0.42552,1.27775 1.61347,1.27775 l 0,0.425996 -4.97618,0 0,-0.425996 c 1.36803,0 1.86059,-0.448266 1.86059,-1.636219 l 0,-4.505168 c 0,-0.874263 -0.11183,-0.986329 -0.69515,-1.098396 l -1.05313,-0.201863 0,-0.358469 2.91373,-1.008838 0.33667,0 0,7.531203 z M 128.68058,9.6767428 c 0.53878,0 0.9868,0.3807392 0.9868,0.8517532 0,0.470536 -0.44802,0.851753 -0.9868,0.851753 -0.53687,0 -0.96287,-0.381217 -0.96287,-0.851753 0,-0.471014 0.426,-0.8517532 0.96287,-0.8517532 M 119.8891,21.691084 c 0.2682,1.344798 1.11995,2.106754 2.12927,2.106754 0.89605,0 1.5912,-0.672399 1.5912,-1.479134 0,-0.470775 -0.11231,-0.762195 -0.71766,-1.367307 -1.59144,-1.591439 -3.36175,-1.748285 -3.36175,-3.609115 0,-1.479134 1.16592,-2.510241 2.86942,-2.510241 0.60464,0 1.23274,0.134575 1.79259,0.358708 l 0.045,2.039706 -0.38074,0 c -0.15757,-1.143174 -0.89749,-1.860352 -1.79354,-1.860352 -0.73993,0 -1.36683,0.515315 -1.36683,1.255241 0,1.972657 4.16825,2.308617 4.16825,5.043231 0,1.456864 -1.20998,2.55526 -2.77915,2.55526 -0.42552,0 -0.73969,-0.06729 -0.98633,-0.157085 -0.24641,-0.06705 -0.42504,-0.134336 -0.60511,-0.134336 -0.13434,0 -0.26844,0.0898 -0.38074,0.269151 l -0.3362,0 -0.24664,-2.510481 0.35894,0 m -5.64976,0.62762 c 0,0.918802 0.33572,1.210223 1.45687,1.210223 l 0.85199,0 0,0.425996 -5.31286,0 0,-0.425996 c 1.14341,-0.02227 1.50212,-0.493045 1.50212,-1.680998 l 0,-5.177807 -1.50212,-0.538062 0,-0.380978 2.5555,-0.896532 0.4485,0 0,2.375905 0.0448,0 c 1.12067,-1.838082 1.38958,-2.263839 2.12903,-2.263839 0.26939,0 0.33667,0.02227 0.76219,0.201863 0.22414,0.08956 0.62762,0.179115 1.16616,0.3362 l -0.53854,1.344558 c -0.3362,-0.04478 -0.76171,-0.156605 -1.18771,-0.358469 -0.24664,-0.111827 -0.51555,-0.224372 -0.78447,-0.224372 -0.40348,0 -0.6506,0.269151 -0.8745,0.582841 -0.29142,0.403488 -0.53782,0.784466 -0.71694,1.120665 l 0,4.348802 m -10.80102,-4.639983 c 0.51651,-2.084485 1.63693,-2.420684 2.37734,-2.420684 1.07517,0 1.9717,0.96382 2.21834,2.420684 l -4.59568,0 z m 6.47854,0.582841 0,-0.515553 c -0.73945,-0.739687 -0.67264,-2.913968 -3.69843,-2.913968 -2.73462,0 -4.32582,2.420684 -4.32582,4.796589 0,2.600277 1.70303,4.595205 3.89958,4.595205 1.63646,0 3.04855,-1.120665 3.98986,-2.308857 l -0.24641,-0.268912 c -0.85151,1.008598 -1.72577,1.457104 -2.84644,1.457104 -1.77103,0 -3.40749,-1.569171 -3.40749,-3.900058 0,-0.29166 0.0453,-0.605111 0.0898,-0.94155 l 6.54535,0 m -13.875409,5.894985 -3.250646,-7.441646 c -0.3362,-0.784465 -0.627621,-1.053616 -0.98585,-1.120665 l -0.695866,-0.112066 0,-0.403487 4.573653,0 0,0.403487 c -1.368025,0.04478 -1.793303,0.223893 -1.255958,1.27751 l 2.376384,5.581054 2.286587,-5.177567 C 99.493482,16.244126 99.2909,15.594236 97.654921,15.48217 l 0,-0.403487 3.899579,0 0,0.403487 c -0.8508,0.156606 -1.34456,0.64989 -1.770316,1.636218 l -3.092604,7.038159 -0.650129,0 m -6.73237,-1.90537 c 0,0.784705 0.426236,1.27775 1.613709,1.27775 l 0,0.425996 -4.976183,0 0,-0.425996 c 1.367547,0 1.860591,-0.448266 1.860591,-1.636219 l 0,-4.505168 c 0,-0.874263 -0.112066,-0.986329 -0.694908,-1.098396 l -1.053377,-0.201863 0,-0.358469 2.913729,-1.008838 0.336439,0 0,7.531203 z M 88.39004,9.6767428 c 0.538063,0 0.986089,0.3807392 0.986089,0.8517532 0,0.470536 -0.448026,0.851753 -0.986089,0.851753 -0.538063,0 -0.964059,-0.381217 -0.964059,-0.851753 0,-0.471014 0.425996,-0.8517532 0.964059,-0.8517532 M 77.199435,22.004775 c 0,1.232731 0.291182,1.524152 1.501643,1.524152 l 0,0.425996 -4.505168,0 0,-0.425996 c 0.986089,0 1.501643,-0.538063 1.501643,-1.412086 l 0,-4.707032 c 0,-0.829244 -0.0898,-0.986329 -0.672639,-1.098395 l -0.761956,-0.156845 0,-0.358709 2.577529,-0.94131 0.358948,0 0,1.748285 c 1.501643,-0.94155 2.756884,-1.770794 3.855279,-1.770794 1.524391,0 2.397935,1.120664 2.397935,3.362234 0,2.981255 -0.156605,3.564097 -0.178875,4.43812 -0.02227,0.605111 0.336199,0.896532 1.255001,0.896532 l 0.493284,0 0,0.425996 -4.819098,0 0,-0.425996 c 0.64989,-0.02227 1.030868,-0.179355 1.27751,-0.425757 0.425757,-0.425997 0.470775,-2.062215 0.470775,-5.043471 0,-1.793303 -0.874263,-2.353636 -1.770794,-2.353636 -0.717417,0 -1.815573,0.62786 -2.981017,1.434835 l 0,4.863877 m -2.945816,-11.991833 0,0.425757 c -1.501643,0.02251 -2.039227,0.62762 -2.039227,2.062454 l 0,6.05183 c 0,2.779632 -1.771273,5.760409 -6.63515,5.760409 -4.281275,0 -6.477826,-2.443193 -6.477826,-5.648342 l 0,-6.545114 c 0,-1.434595 -0.403487,-1.658728 -1.927399,-1.681237 l 0,-0.425757 5.760408,0 0,0.425757 -0.201863,0 c -1.232492,0 -1.770794,0.336439 -1.770794,1.636458 l 0,6.231184 c 0,3.026274 1.770794,4.841847 5.110519,4.841847 2.53299,0 5.110758,-1.053856 5.110758,-4.864356 l 0,-5.222346 c 0,-2.152012 -0.336199,-2.53299 -2.19679,-2.622787 l 0,-0.425757 5.267364,0 m 100.585421,40.36101 -13.51192,0 0,-0.574103 0.99711,0 c 1.39029,0 1.90393,-0.453893 1.90393,-1.995406 l 0,-13.391658 c 0,-1.601377 -0.48323,-2.266209 -2.38716,-2.266209 l -0.42336,0 0,-0.575011 8.91671,0 0,0.575011 -1.11899,0 c -1.96356,0 -2.47887,0.211633 -2.47887,2.085921 l 0,13.934414 c 0,0.816577 0.33404,1.11918 1.2095,1.11918 l 4.44363,0 c 1.78324,0 2.32633,-0.695698 4.23194,-3.325046 l 0.54381,0 -2.32633,4.412907 m -16.88612,-8.917716 c 0,4.292242 -2.35723,8.644569 -7.28409,8.644569 -4.8677,0 -8.7055,-3.98847 -8.7055,-9.641458 0,-3.627889 2.11441,-8.585203 7.43542,-8.585203 4.98791,0 8.55417,3.961119 8.55417,9.582092 z m 2.84165,-0.996889 c 0,-5.4409 -4.89693,-9.340742 -10.60968,-9.340742 -6.43808,0 -11.06417,4.262071 -11.06417,10.277048 0,5.653945 4.98863,9.462127 10.91355,9.462127 5.86337,0 10.7603,-4.292247 10.7603,-10.398433 m -30.14206,7.133941 c 0,1.632938 0.54262,2.206561 2.38621,2.206561 l 1.12018,0 0,0.574103 -9.52278,0 0,-0.574103 1.11947,0 c 1.84359,0 2.38692,-0.573623 2.38692,-2.206561 l 0,-14.93202 -5.26018,0 c -1.2083,0 -1.75259,0.69383 -2.20685,3.354068 l -0.54309,0 0.48371,-4.896731 0.57374,0 c 0.0311,0.181462 0.15206,0.303059 0.33285,0.362923 0.18175,0.06125 0.39343,0.09004 0.60439,0.09004 l 14.53967,0 c 0.4236,0 0.8769,-0.09004 0.9382,-0.45296 l 0.57326,0 0.48442,4.896731 -0.54476,0 c -0.45282,-2.660238 -0.99711,-3.354068 -2.20565,-3.354068 l -5.25971,0 0,14.93202 M 107.4672,45.779344 c 0.63577,2.690625 2.75042,4.261828 5.10861,4.261828 2.02557,0 4.1704,-1.178108 4.1704,-3.565914 0,-4.353735 -9.70213,-5.683399 -9.70213,-10.972746 0,-2.510098 2.29736,-4.383907 5.38087,-4.383907 2.53778,0 3.05285,0.755539 4.11078,0.755539 0.24113,0 0.36206,-0.06032 0.54405,-0.302579 l 0.48346,0 0.5134,3.839498 -0.5134,0 c -0.84672,-2.176173 -2.78082,-3.566372 -4.86722,-3.566372 -1.99541,0 -3.38571,1.147723 -3.38571,2.840981 0,4.292482 9.70357,5.441833 9.70357,11.002462 0,2.962602 -2.63045,5.169646 -6.16629,5.169646 -1.66327,0 -3.77745,-0.816608 -4.20105,-0.816608 -0.27251,0 -0.48467,0.150598 -0.60488,0.33278 l -0.51411,0 -0.63385,-4.594608 0.5735,0 m -2.05527,-13.632768 0,-0.575011 -7.34562,0 0,0.575011 c 1.692492,0.09004 2.26767,0.543235 2.26767,2.176173 l 0,12.877205 c 0,1.964303 -0.373794,2.476191 -2.104359,2.58915 -2.305505,-0.121388 -3.28441,-1.025655 -4.938588,-2.678707 L 90.90531,44.722112 c -1.41903,-1.42085 -2.326098,-2.268293 -3.444608,-3.144279 2.478633,-0.724937 4.018589,-2.630067 4.018589,-4.896755 0,-3.083241 -2.508086,-5.381011 -8.101113,-5.381011 -1.965953,0 -2.570585,0.02969 -3.809542,0.09143 -1.238958,0.05963 -3.083505,0.180073 -3.808585,0.180073 l 0,0.575011 0.665216,0 c 1.753074,0 2.266951,0.543235 2.266951,2.418672 l 0,12.725676 c 0,2.026033 -0.635283,2.508925 -2.41805,2.508925 l -0.514117,0 0,0.574103 8.556085,0 0,-0.574103 -0.696105,0 c -1.693689,0 -2.418769,-0.453893 -2.418769,-2.267598 l 0,-5.108604 c 0.483946,0.03017 0.876657,0.06173 1.541872,0.06173 0.817032,0 1.300738,-0.03156 2.057187,-0.06173 0.726037,0.484065 1.784682,1.360051 3.114155,2.690386 l 1.994209,1.996364 c 2.613447,2.615102 3.728365,3.441736 8.65067,3.263555 l 6.852575,0 0,-0.574103 c -2.08568,0 -2.56891,-0.604491 -2.56891,-2.388046 l 0,-12.816383 c 0,-2.025338 0.66522,-2.448844 2.56891,-2.448844 z m -22.335709,9.763553 c -0.696345,0 -1.149879,0.02993 -1.874959,-0.0601 l 0,-9.915298 c 0.54381,-0.06058 0.937001,-0.06058 1.511701,-0.06058 4.657942,0 5.925635,2.177586 5.925635,4.987701 0,3.627434 -2.204932,5.048284 -5.562377,5.048284 M 63.366408,31.965114 c 0.75597,-0.03039 1.996125,-0.09097 2.660382,-0.09097 3.718069,0 4.987437,1.934847 4.987437,4.051156 0,2.357874 -1.451117,3.506052 -4.352394,3.506052 l -3.295425,0 0,-7.466238 z m -2.507847,15.355264 c 0,1.905848 -0.484184,2.479471 -2.961859,2.479471 l -0.696824,0 0,0.574103 11.063452,0 c 4.867469,0 6.52907,-3.355244 6.52907,-5.743266 0,-2.357179 -1.661601,-4.20175 -4.502295,-5.048044 l 0,-0.06056 c 2.025099,-0.363162 3.444848,-1.9643 3.444848,-3.68682 0,-1.451716 -0.604154,-2.480165 -1.843829,-3.355218 -1.088338,-0.786668 -3.415873,-1.179978 -6.075297,-1.179978 -0.575179,0 -2.871823,0.02969 -4.53534,0.09143 -0.875699,0.03017 -2.962099,0.15129 -3.808345,0.180073 l 0,0.575011 1.058166,0 c 2.115614,0 2.328253,0.906637 2.328253,2.629132 l 0,12.54467 z m 2.507847,-7.314924 3.264535,0 c 3.537039,0 5.320764,2.389195 5.320764,4.716658 0,2.35694 -1.148921,4.835474 -5.139015,4.835474 -2.539695,0 -3.446284,-0.816598 -3.446284,-3.113195 l 0,-6.438937" /><path
   style="fill:#c5000c;fill-rule:nonzero;stroke:none"
   inkscape:connector-curvature="0"
   id="path3038"
   d="m 23.89075,0.02872848 c 0,0 0,23.54880852 0,23.93122352 C 14.26285,20.169087 10.251923,27.52017 0,23.959952 0,24.067947 2.1647653e-4,0.02872848 2.1647653e-4,0.02872848 l 4.87756802347,0 0,2.58351562 2.7972561,0 -3.353e-4,-2.58351562 2.7510647,0 3.59e-4,2.58375502 2.773406,-2.394e-4 1.2e-4,-2.58351562 2.773885,0 0,2.58351562 3.016624,2.394e-4 0,-2.58375502 4.900586,0 z M 6.1851071,6.9859499 c 1.0980121,0.057949 2.432585,-0.6245072 2.519676,-0.6817378 0,0 -0.4625377,1.1673593 0.5778368,1.0979164 1.1292371,-0.075429 2.4290891,-0.6542001 2.6120591,-0.7396867 l 0,-1.5026009 C 11.794011,5.2335941 10.693532,6.0115941 9.4445656,6.2927182 8.9883257,6.3952063 9.1439496,5.9919585 9.1901411,5.7611207 9.2364284,5.529804 9.2675341,5.3408714 8.4504784,5.6799444 5.1102267,7.0668868 4.9367152,6.1193503 4.9367152,6.0034525 4.7981646,6.1655658 4.8569756,6.9160281 6.1851071,6.9859499 z m 9.7550039,0.069443 c 0,0 -4.345928,0.6240284 -5.594081,0.7396867 -0.8611397,0.5086095 -1.8493601,1.9302734 -1.8493601,1.9302734 0,0 -1.0170034,0.1501403 -3.0512256,0.5201031 -1.4143125,0.922633 -2.265491,3.074405 -0.5087291,4.831311 C 4.382034,14.961109 4.382034,14.961109 3.5730481,14.822462 1.8393029,15.932112 2.6484038,17.989538 6.2544303,17.272839 5.2374269,17.238118 4.7286978,16.741242 4.7402875,16.093746 4.7172517,15.388781 6.0928438,14.510209 7.7685969,14.961109 6.1733976,11.944413 7.941869,10.753826 7.941869,10.753826 c 0,0 -0.9360904,2.491085 1.1097216,4.530791 0.1848378,-0.300281 0.7973961,-1.144132 2.5195564,-1.178853 1.715982,-0.03448 2.79388,0.808411 2.820076,1.779893 0.02316,0.855585 -1.06329,1.756906 -2.473388,1.756906 l -0.02316,-2.043537 c 0,0 -0.459377,0.165226 -0.589283,0.346496 0.0021,0.09411 -0.01159,1.720268 -0.01159,1.720268 -0.554896,0 -1.6875342,-0.231317 -2.2885267,-1.190826 -0.4624179,-0.04598 -3.0397555,-0.427433 -3.0397555,-0.427433 l 0.1386703,0.681977 c 0,0 0.9015845,0.15038 1.0748565,1.051701 0.2098852,1.090733 0.8322613,2.092147 1.3870622,2.496592 1.0747607,-0.127152 2.8547982,-1.479373 6.1257262,-1.433158 -3.005154,0.415939 -6.0563791,3.628991 -10.4485951,2.404162 6.9811191,2.380934 7.6977461,-2.912771 16.4356271,-1.248296 -1.363786,-0.832358 -3.398009,-1.086423 -3.398009,-1.086423 0,0 1.086327,-1.179092 1.132638,-2.981974 0.13867,-0.0089 0.323508,-0.02323 0.670435,-0.05771 0.115515,-0.578053 0.196428,-1.164726 0.196428,-1.164726 0,0 -1.907022,-0.0029 -3.507825,-0.0029 -3.895172,-3.941244 0.167573,-7.6514112 0.167573,-7.6514112 z m 1.664379,5.9179722 c -0.184957,-0.994231 -0.0926,-2.958986 0.878333,-4.9007533 -3.58299,2.7044423 -3.629182,4.9005143 -3.629182,4.9005143 0,0 0.693471,-0.531598 2.750849,2.39e-4" /><path
   style="fill:#c5000c;fill-rule:nonzero;stroke:none"
   inkscape:connector-curvature="0"
   id="path3040"
   d="m 50.263968,26.421822 c 0,-0.382175 -4.79e-4,23.958428 0,23.959836 -13.245636,3.224737 -13.627571,-3.814017 -23.890994,0 0.0012,0.311011 -0.0043,-23.961991 0,-23.959836 9.431305,-3.952738 13.107229,3.536656 23.890994,0 z m -5.320284,2.701593 c -2.132376,0.745505 -1.817968,3.04397 -1.24231,3.929798 0.751181,1.155889 1.386943,1.178805 1.866578,2.536989 0.374033,1.059315 -0.294774,1.612129 -0.953523,1.854868 1.126651,0.694046 2.288503,-0.02316 2.704442,-0.716747 0.766266,-1.021194 -0.10177,-2.347098 0.716698,-3.0393 0.218865,-0.185198 0.589307,-0.312182 1.086423,-0.335338 -0.497116,-0.705276 -1.664475,-0.624363 -2.132376,0.03463 -0.329495,-0.763058 -1.254283,-1.429734 -0.919041,-2.612299 0.219583,-0.774264 1.444891,-1.06353 1.907046,-0.427936 0.253107,0.348197 0.289026,1.028929 -0.450661,1.376191 0.462394,-0.03463 1.340727,-0.832501 0.739687,-1.919186 -0.421926,-0.763034 -1.132638,-0.820576 -1.710451,-0.820576 -1.05194,0 -2.797112,1.20244 -1.681716,3.796971 -0.641508,-0.571994 -1.681715,-2.565988 0.0692,-3.658061 z m -13.479587,4.646066 c 0,0 -0.338115,0.416226 0.04334,0.520534 0.0089,0.121142 0.05651,0.359642 0.104165,0.484999 0.06369,0.167908 0.173367,0.113168 0.294773,-0.0262 0.121166,-0.138431 0.316564,-0.401739 0.45952,-0.554202 0.129787,-0.138455 0.582363,-0.08934 0.398698,0.190345 -0.121645,0.184742 -0.216949,0.23431 -0.372836,0.268912 -0.123321,0.02713 -0.160437,-0.07809 -0.294773,0.104308 -0.141281,0.191279 -0.292379,0.325041 -0.04334,0.325041 0.130025,0 0.377146,0.121142 0.541894,0.09494 0.154929,-0.02457 0.17241,-0.125357 0.189172,-0.264482 0.01724,-0.144513 -0.01078,-0.228012 0.15038,-0.317809 0.207849,-0.115515 0.514117,-0.392855 0.606787,-0.491057 0.106319,-0.112713 0.242571,-0.08654 0.381218,-0.08654 0.138885,0 0.809129,0.08091 1.207827,-0.517254 0.281364,-0.421854 0.312254,-0.996889 0.208089,-1.516969 0.190849,0.190585 0.447069,0.789926 0.312015,1.352102 -0.240177,1.000624 -0.732743,1.056753 -1.230816,1.161516 -0.208089,0.294654 -0.739687,1.051845 -1.022726,2.427796 -0.121645,0.08043 -1.127131,1.051366 -0.286393,2.643859 -0.216709,0.07203 -0.855584,0.344676 -1.233689,0.429804 -0.254304,0.058 -0.466943,0.07109 -0.569192,0.193626 -0.115658,0.13891 -0.381457,0.589762 -0.242811,0.815188 0.09842,0.159479 0.728193,1.568643 0.780155,2.002661 0.05196,0.433085 0.208808,0.535956 0.364216,0.676278 0.173129,0.155265 0.285914,0.147315 0.528724,0.329256 0.245206,0.183808 0.449224,0.514931 0.675991,0.693112 0.24305,0.190824 0.514357,0.27734 0.705205,0.259572 -0.04622,-0.704342 -0.196595,-1.397933 -0.416179,-1.628963 -0.227964,-0.239937 -0.514356,0.10383 -0.58356,0.121119 -0.06944,0.01731 -0.165944,-0.04911 -0.208089,-0.242715 -0.04334,-0.199254 0.138646,-0.363881 -0.03472,-0.623909 -0.32279,-0.484065 -0.630255,-1.027995 -0.667371,-1.101412 -0.225569,-0.441514 0.156846,-0.558896 0.251192,-0.536914 0.22557,0.05191 1.577791,0.233831 1.78588,0.251144 0.20785,0.01731 0.323029,0.05239 0.415939,-0.05192 0.286153,-0.320826 0.4509,-0.554681 0.615647,-0.884391 0.303394,0.225426 0.09531,0.658965 0.0086,1.172963 0.08668,0.07576 2.045692,1.06353 4.73888,0.347023 1.124735,-0.298844 0.996625,-0.06315 1.103663,0.144513 0.653003,1.265585 1.115157,1.755732 1.889805,2.375426 0.231077,0.184718 0.392712,0.484975 0.496876,0.658031 0.104164,0.173991 0.130265,0.482198 0.04646,0.682361 -0.104165,0.248342 -0.705923,1.327317 -0.80913,1.479301 -0.196595,0.289505 -0.453055,0.531765 -0.670483,0.647304 -0.681977,0.364336 -0.852232,0.691244 -0.927422,0.94519 0.155887,0 1.750919,0 1.750919,0 0,0 0.04071,-0.09073 0.02011,-0.309596 -0.02873,-0.305884 0.248557,-0.357798 0.335241,-0.375087 0.08668,-0.01731 0.242811,0.05144 0.381457,-0.277341 0.26077,-0.619694 1.277031,-2.346428 1.363955,-2.502626 0.08644,-0.156223 0.404205,-0.573383 0.09243,-0.756737 -0.589547,-0.347023 -0.935564,-0.917149 -1.051701,-1.555066 -0.04646,-0.253969 -0.01868,-0.673021 0.554825,-1.386703 1.224829,-1.525612 0.312014,-4.669437 -2.415656,-4.61144 -1.54714,0.03273 -2.407513,-0.09916 -3.415633,-0.300735 -0.368287,-0.0739 -0.431264,-0.272193 -0.352482,-0.497164 0.08094,-0.231029 0.159,-0.69031 0.161873,-0.878309 -0.265798,-0.242739 -0.670243,-0.392879 -0.866839,-0.462083 -0.211441,-0.07462 -0.318,-0.243217 -0.103925,-0.260267 0.213597,-0.01707 1.022727,0.06944 1.022727,0.06944 0,0 0.02873,-0.433563 -0.08668,-1.069133 -0.346736,-0.15062 -0.786142,-0.27782 -1.248057,-0.335338 -0.121884,-0.01497 -0.228682,-0.152247 0.0807,-0.196451 0.404684,-0.05776 0.774408,0.0061 1.063434,-0.01169 0.01724,-0.03436 -0.138646,-0.843252 -0.424799,-1.1704 -0.199229,-0.0601 -0.30483,-0.08793 -0.996865,-0.169992 -0.242811,-0.02854 -0.254305,-0.09847 -0.09243,-0.150595 0.187975,-0.05987 0.49975,-0.121142 0.890067,-0.09542 -0.15038,-0.207658 -1.156105,-2.042412 -3.242266,-1.490532 0.234191,0.285769 0.346736,0.418357 0.416179,0.61524 0.06226,0.175858 -0.1238,0.231987 -0.294773,0.05239 -0.65875,-0.69383 -1.005486,-0.676517 -1.430285,-0.754844 0.277293,0.269151 0.398938,0.538063 0.494003,0.80652 -0.476522,0.338139 -1.152753,1.143988 -1.248057,1.300426 -0.181509,0.296736 0.06944,0.456455 0.06944,0.456455 l -1.11851,1.363572 z m 0.979624,4.565607 c -0.971003,-0.393334 -1.188192,-0.656187 -1.369701,-0.73382 -0.161635,-0.06944 -0.830202,0.214675 -0.942029,0.502312 -0.300281,0.774504 -0.970764,2.040065 -1.068942,2.219204 -0.05292,0.09633 -0.109672,0.208568 -0.09842,0.335313 0.01173,0.127224 0.04909,0.624388 0.03783,0.739902 -0.01173,0.115994 0.0057,0.26611 0.05172,0.381625 0.04622,0.115539 0.107038,0.612223 0.361342,1.108907 0.566319,-0.565911 0.649411,-1.401214 0.612535,-1.236107 -9.58e-4,0.0042 0.179354,-0.305884 -0.271546,-0.445249 -0.12835,-0.03975 -0.109432,-0.37322 0.02874,-0.41625 0.16786,-0.05144 0.254544,-0.0982 0.335481,-0.398004 0.0807,-0.301191 0.385767,-1.3811 0.485382,-1.589668 0.01509,-0.03182 0.04334,-0.08606 0.09938,-0.112258 0.08644,-0.03975 0.19013,-0.06781 0.276335,-0.08185 0.04238,-0.007 0.1238,0.0393 0.148704,0.06453 0.153971,0.156223 0.95496,0.80537 0.95496,0.80537 0,0 0.358229,-0.0346 0.577812,-0.126745 -0.138646,-0.219799 -0.196355,-0.751588 -0.219583,-1.017219 z m 8.876719,6.333936 c -0.381457,0.311966 -1.560549,0.906876 -1.855323,1.045762 -0.294533,0.13891 -0.389119,0.223103 -0.606547,0.652907 -0.266039,0.526617 -0.520343,1.480235 -0.4509,1.548984 0.727953,-0.115515 1.248296,-0.727714 1.248296,-0.727714 0,2.4e-5 0.01149,-0.15014 -0.15038,-0.405499 -0.133857,-0.210459 0.127152,-0.438232 0.289026,-0.30586 0.123321,0.101483 0.294773,0.121597 0.398698,0.0346 0.104164,-0.08652 2.375187,-1.531216 2.479351,-1.698645 -0.462394,-0.456935 -0.814876,-0.919017 -0.814876,-0.919017 0,0 -0.156127,0.462082 -0.537345,0.77448 z M 33.078525,32.580139 c 0,0 -0.113982,-0.05661 0.103207,-0.238285 0.02658,-0.02222 0.06849,0.02735 0.194919,0.02876 0.170015,0.0021 0.259094,-0.05661 0.400134,-0.226599 0.213118,-0.257945 -0.231316,-0.356626 -0.37571,-0.232921 -0.158521,0.135413 -0.272024,0.276406 -0.408037,0.40035 0,0 -0.228443,0.203204 0.08549,0.268696" /><path
   style="fill:#c5000c;fill-rule:nonzero;stroke:none"
   inkscape:connector-curvature="0"
   id="path3042"
   d="m 23.890989,26.421822 c 0.0041,-0.0022 -0.0012,24.270847 0,23.959836 -10.263614,-3.814017 -10.645502,3.224737 -23.890989,0 3.3333218e-4,-0.0014 0,-24.342011 0,-23.959836 10.783688,3.536656 14.459493,-3.952738 23.890989,0 z M 7.6041849,42.16314 c -0.083834,1.017698 -0.6673943,1.16736 -0.6673943,1.16736 -1.0181527,-0.468165 -1.5644289,0.813775 -0.7099459,1.191448 1.0829262,0.478438 1.7457707,-0.921363 1.8100892,-1.179763 0.1825151,-0.733796 0.1996843,-1.252462 0.1180769,-2.444151 -0.069563,-1.01583 0.1808868,-1.169227 0.3478611,-1.197052 0.16707,-0.02782 0.5151466,-0.0414 0.8628879,1.016525 0.3480766,1.057208 1.0988262,1.210629 1.0988262,1.210629 0,0 -1.0870209,-1.769046 0.425015,-3.402247 0.703073,-0.759275 2.136662,-1.190731 1.871247,-2.253806 0,0 -0.221691,0.38117 -0.653243,0.492494 -0.431456,0.1113 -1.266519,0.236657 -1.266519,0.236657 0,0 2.004171,-0.946627 2.366064,-2.032355 0,0 0.626231,1.04411 -0.208951,2.574871 0,0 0.795432,-0.284596 1.651184,0.101962 2.181202,0.966477 1.949574,4.073593 -0.810398,4.814405 -3.9279068,1.054191 -2.501789,4.092558 -0.252198,4.278928 -0.241326,-0.152942 -0.296162,-1.069373 0.0988,-1.613087 0.197146,-0.175834 0.549892,-0.530592 0.773689,0.214459 0.394963,1.317021 1.547356,1.423867 2.082042,1.259479 -0.139843,-0.118077 -0.403032,-0.518906 -0.370298,-0.749481 0.06595,-0.46067 0.641317,0.01779 0.850508,0.07694 1.547236,0.438927 2.370254,0.05544 2.457944,-0.175619 -0.345515,-0.07155 -0.285291,-0.03225 -0.504635,-0.08793 -0.204617,-0.05096 -0.601687,-0.334164 0.142646,-0.504634 1.366468,-0.312876 2.118056,-1.722496 1.218339,-2.808726 -0.859032,-1.037573 -1.942102,-0.878549 -2.293675,-0.735903 1.481409,0.318503 1.556,1.511101 0.800916,2.118176 -0.658151,0.493883 -2.29322,0.691244 -2.853026,-0.405954 -0.353943,0.255358 -0.477288,0.663874 -0.416968,1.174136 -0.148249,-0.05541 -0.768518,-0.938198 0.153421,-1.667779 4.274235,-2.755423 3.584379,-7.386044 -0.03297,-9.291892 l -0.0449,-0.01964 c -3.28168,-1.885255 -6.1527375,-0.164627 -6.1527375,-0.164627 2.0289785,-2.032115 5.5353655,-0.823138 6.0397845,-0.57106 0,0 -0.403271,-0.350998 -0.617946,-0.672998 -0.278035,-0.416945 -0.267523,-0.815188 -0.267523,-0.815188 -1.392066,0.777066 -1.751158,-0.416705 -1.751158,-0.416705 0,0 -1.205457,1.086446 -1.987791,0.202725 -0.683893,-0.773306 0.423362,-1.82211 0.423362,-1.82211 -7.0608591,2.317645 -5.7225506,6.304482 -5.7225506,6.304482 0,0 -1.0226066,0.939347 -1.251433,3.202515 -0.259908,2.570897 1.0207389,4.399592 2.6207274,3.89728 0.3664191,-0.11506 0.5484793,-0.289505 0.6190955,-0.482891 l 0.00374,-0.01988 z M 7.27038,40.633098 c 0.3471427,-0.02339 0.3911072,-0.44829 0.3282015,-0.671848 -0.073897,-0.263788 -0.5146916,-0.296522 -0.6207477,0.0393 -0.1050025,0.332511 -0.013218,0.655924 -0.013218,0.655924 0.087115,0.320611 0.4480504,0.412275 0.4790363,0.379757 C 7.2431296,40.856871 7.2975106,40.753282 7.27038,40.633098 z m 1.4208498,-0.542541 c 0,0 -0.4192915,0.274084 0.1056969,1.425543 0.5247489,1.150741 1.1762431,2.222939 0.042312,3.487567 0.6430892,0.0075 2.0468661,-0.840451 0.5448635,-3.367622 C 9.0387316,41.054018 8.6657275,40.650866 8.6912298,40.090557" />
</svg>