<?xml version="1.0" encoding="UTF-8" standalone="no"?>
<!-- Created with Inkscape (http://www.inkscape.org/) -->

<svg
   xmlns:dc="http://purl.org/dc/elements/1.1/"
   xmlns:cc="http://creativecommons.org/ns#"
   xmlns:rdf="http://www.w3.org/1999/02/22-rdf-syntax-ns#"
   xmlns:svg="http://www.w3.org/2000/svg"
   xmlns="http://www.w3.org/2000/svg"
   xmlns:sodipodi="http://sodipodi.sourceforge.net/DTD/sodipodi-0.dtd"
   xmlns:inkscape="http://www.inkscape.org/namespaces/inkscape"
   width="73.990089"
   height="10.77346"
   id="svg3117"
   version="1.1"
   inkscape:version="0.48.3.1 r9886"
   sodipodi:docname="New document 7">
  <defs
     id="defs3119" />
  <sodipodi:namedview
     id="base"
     pagecolor="#ffffff"
     bordercolor="#666666"
     borderopacity="1.0"
     inkscape:pageopacity="0.0"
     inkscape:pageshadow="2"
     inkscape:zoom="15.448015"
     inkscape:cx="36.995045"
     inkscape:cy="5.3867302"
     inkscape:document-units="mm"
     inkscape:current-layer="layer1"
     showgrid="false"
     fit-margin-top="0"
     fit-margin-left="0"
     fit-margin-right="0"
     fit-margin-bottom="0"
     units="mm"
     inkscape:window-width="1280"
     inkscape:window-height="965"
     inkscape:window-x="0"
     inkscape:window-y="27"
     inkscape:window-maximized="1" />
  <metadata
     id="metadata3122">
    <rdf:RDF>
      <cc:Work
         rdf:about="">
        <dc:format>image/svg+xml</dc:format>
        <dc:type
           rdf:resource="http://purl.org/dc/dcmitype/StillImage" />
        <dc:title></dc:title>
      </cc:Work>
    </rdf:RDF>
  </metadata>
  <g
     inkscape:label="Layer 1"
     inkscape:groupmode="layer"
     id="layer1"
     transform="translate(-137.29076,-244.11832)">
    <path
       inkscape:connector-curvature="0"
       id="path3071"
       style="font-size:11.19999981px;font-variant:normal;font-weight:300;writing-mode:lr-tb;fill:#000000;fill-opacity:1;fill-rule:nonzero;stroke:none;font-family:Open Sans Light;-inkscape-font-specification:OpenSans-Light"
       d="m 206.41366,251.4943 3.79395,-4.16992 0.82031,0 -2.92578,3.17187 3.17871,4.25879 -0.81347,0 -2.82325,-3.75293 -1.21679,1.10742 0,2.64551 -0.67676,0 0,-10.63672 0.67676,0 0,5.33203 -0.0478,2.04395 0.0342,0 m -8.3212,-4.16992 0,4.8125 c 0,0.7474 0.15723,1.29199 0.47168,1.63379 0.31445,0.33724 0.80208,0.50586 1.46289,0.50586 0.88411,0 1.53353,-0.22331 1.94824,-0.66993 0.41927,-0.44661 0.6289,-1.1735 0.62891,-2.18066 l 0,-4.10156 0.66992,0 0,7.43066 -0.57422,0 -0.12305,-1.02539 -0.041,0 c -0.48307,0.77474 -1.34212,1.16211 -2.57714,1.16211 -1.69076,0 -2.53614,-0.90462 -2.53614,-2.71387 l 0,-4.85351 0.66992,0 m -4.0566,6.89746 c -1e-5,-0.44661 0.18229,-0.66992 0.54687,-0.66992 0.3737,0 0.56055,0.22331 0.56055,0.66992 0,0.44661 -0.18685,0.66992 -0.56055,0.66992 -0.36458,0 -0.54688,-0.22331 -0.54687,-0.66992 m -3.53249,0.66992 c -1.06185,0 -1.89356,-0.33496 -2.49512,-1.00488 -0.60156,-0.66992 -0.90234,-1.60417 -0.90234,-2.80274 0,-1.23046 0.31217,-2.18749 0.93652,-2.87109 0.62435,-0.68814 1.47884,-1.03222 2.56348,-1.03223 0.64257,10e-6 1.25781,0.11166 1.8457,0.33496 l -0.18457,0.60157 c -0.64258,-0.21419 -1.20085,-0.32129 -1.6748,-0.32129 -0.91146,0 -1.60189,0.28256 -2.07129,0.84765 -0.4694,0.56056 -0.7041,1.36948 -0.7041,2.42676 0,1.00261 0.2347,1.78874 0.7041,2.3584 0.4694,0.56511 1.12565,0.84766 1.96875,0.84766 0.67447,0 1.3011,-0.12077 1.87988,-0.36231 l 0,0.62891 c -0.47396,0.23242 -1.09603,0.34863 -1.86621,0.34863 m -5.86108,-0.13672 -0.1709,-1.17578 -0.0547,0 c -0.3737,0.47852 -0.75879,0.81804 -1.15527,1.01856 -0.39193,0.19596 -0.85678,0.29394 -1.39453,0.29394 -0.72917,0 -1.29655,-0.18685 -1.70215,-0.56055 -0.4056,-0.37369 -0.6084,-0.89095 -0.6084,-1.55175 0,-0.72461 0.30078,-1.28744 0.90234,-1.68848 0.60612,-0.40104 1.48112,-0.61295 2.625,-0.63574 l 1.41504,-0.041 0,-0.49219 c 0,-0.70637 -0.14356,-1.23957 -0.43066,-1.59961 -0.28711,-0.36001 -0.74968,-0.54003 -1.3877,-0.54003 -0.68815,0 -1.40137,0.19141 -2.13964,0.57421 l -0.25294,-0.58789 c 0.81576,-0.3828 1.6224,-0.57421 2.41992,-0.57422 0.81575,1e-5 1.42415,0.21193 1.8252,0.63575 0.40559,0.42383 0.60839,1.08464 0.6084,1.98242 l 0,4.94238 -0.49903,0 m -2.73437,-0.47851 c 0.79296,0 1.41731,-0.22559 1.87305,-0.67676 0.46028,-0.45573 0.69042,-1.08691 0.69043,-1.89356 l 0,-0.73144 -1.29883,0.0547 c -1.04362,0.0501 -1.78874,0.21419 -2.23535,0.49218 -0.44206,0.27344 -0.66309,0.70183 -0.66309,1.28516 0,0.46484 0.14128,0.82715 0.42383,1.08691 0.28711,0.25521 0.69043,0.38282 1.20996,0.38281 m -5.23206,-0.0547 c 0,-0.44661 0.18229,-0.66992 0.54687,-0.66992 0.3737,0 0.56055,0.22331 0.56055,0.66992 0,0.44662 -0.18685,0.66993 -0.56055,0.66993 -0.36458,0 -0.54687,-0.22331 -0.54687,-0.66993 m -2.36453,0.53321 -0.67675,0 0,-10.63672 0.67675,0 0,10.63672 m -2.72125,-3.72559 c 0,1.21224 -0.29395,2.16016 -0.88183,2.84375 -0.5879,0.67904 -1.3991,1.01856 -2.4336,1.01856 -0.65169,0 -1.22591,-0.15723 -1.72265,-0.47168 -0.49675,-0.31445 -0.87728,-0.76562 -1.1416,-1.35351 -0.26433,-0.58789 -0.39649,-1.26693 -0.39649,-2.03711 0,-1.21224 0.29395,-2.1556 0.88184,-2.83008 0.58789,-0.67903 1.39453,-1.01855 2.41992,-1.01856 1.02083,1e-5 1.82063,0.34409 2.39941,1.03223 0.58333,0.6836 0.875,1.6224 0.875,2.81641 m -5.86523,0 c 0,1.02083 0.2233,1.81836 0.66992,2.39257 0.45117,0.56967 1.08691,0.8545 1.90723,0.8545 0.82031,0 1.45377,-0.28483 1.90039,-0.8545 0.45116,-0.57421 0.67675,-1.37174 0.67676,-2.39257 -1e-5,-1.02539 -0.22788,-1.82064 -0.6836,-2.38575 -0.45118,-0.56509 -1.08692,-0.84765 -1.90722,-0.84765 -0.82032,0 -1.45378,0.28256 -1.9004,0.84765 -0.44205,0.56056 -0.66308,1.3558 -0.66308,2.38575 m -3.00836,3.26074 c 0.42838,0 0.80208,-0.0365 1.12109,-0.10938 l 0,0.54688 c -0.32812,0.10937 -0.70638,0.16406 -1.13476,0.16406 -0.65625,0 -1.1416,-0.17545 -1.45606,-0.52637 -0.30989,-0.35091 -0.46484,-0.90234 -0.46484,-1.65429 l 0,-4.79883 -1.10059,0 0,-0.39649 1.10059,-0.30761 0.3418,-1.68164 0.34863,0 0,1.79785 2.18066,0 0,0.58789 -2.18066,0 0,4.70312 c 0,0.56967 0.10026,0.99122 0.30078,1.26465 0.20052,0.27344 0.51497,0.41016 0.94336,0.41016 m -3.87849,-1.46973 c -10e-6,0.66537 -0.25294,1.17806 -0.75879,1.53809 -0.50587,0.35547 -1.22364,0.5332 -2.15332,0.5332 -0.99349,0 -1.7819,-0.15267 -2.36524,-0.45801 l 0,-0.73144 c 0.7474,0.3737 1.53581,0.56055 2.36524,0.56054 0.73372,1e-5 1.28971,-0.12076 1.66797,-0.3623 0.3828,-0.24609 0.57421,-0.57194 0.57422,-0.97754 -1e-5,-0.37369 -0.15268,-0.68815 -0.45801,-0.94336 -0.30079,-0.2552 -0.79753,-0.50585 -1.49024,-0.75195 -0.74284,-0.26888 -1.26465,-0.49902 -1.56543,-0.69043 -0.30078,-0.19596 -0.52864,-0.41471 -0.68359,-0.65625 -0.15039,-0.24609 -0.22559,-0.54459 -0.22559,-0.89551 0,-0.55598 0.23242,-0.99576 0.69727,-1.31933 0.4694,-0.32357 1.12337,-0.48535 1.96191,-0.48536 0.80208,1e-5 1.56315,0.1504 2.28321,0.45118 l -0.25293,0.61523 c -0.72917,-0.30077 -1.40593,-0.45117 -2.03028,-0.45117 -0.60612,0 -1.08691,0.10027 -1.44238,0.30078 -0.35547,0.20053 -0.5332,0.47852 -0.5332,0.83398 0,0.38738 0.13672,0.69727 0.41015,0.92969 0.278,0.23243 0.81804,0.49219 1.62012,0.7793 0.66992,0.24154 1.15755,0.46029 1.46289,0.65625 0.30534,0.19141 0.5332,0.41016 0.6836,0.65625 0.15494,0.24609 0.23241,0.53548 0.23242,0.86816 m -7.09467,1.93457 -0.67675,0 0,-7.43066 0.67675,0 0,7.43066 m -0.77246,-9.49511 c 0,-0.43749 0.14356,-0.65624 0.43067,-0.65625 0.14127,1e-5 0.25065,0.057 0.32812,0.17089 0.082,0.11395 0.12305,0.27573 0.12305,0.48536 0,0.20508 -0.041,0.36687 -0.12305,0.48535 -0.0775,0.1185 -0.18685,0.17774 -0.32812,0.17773 -0.28711,10e-6 -0.43067,-0.22102 -0.43067,-0.66308 m -2.42451,1.92089 c 0.31445,1e-5 0.65169,0.0319 1.01172,0.0957 l -0.12989,0.64941 c -0.3099,-0.0775 -0.63119,-0.1162 -0.96386,-0.11621 -0.63347,1e-5 -1.153,0.26889 -1.5586,0.80664 -0.4056,0.53777 -0.6084,1.2168 -0.6084,2.03711 l 0,4.10156 -0.67675,0 0,-7.43066 0.57422,0 0.0684,1.33984 0.0479,0 c 0.30533,-0.54687 0.63118,-0.92968 0.97753,-1.14844 0.34636,-0.2233 0.76563,-0.33495 1.25782,-0.33496 m -8.11809,0 c 1.03906,1e-5 1.82063,0.32814 2.34473,0.98438 0.52864,0.6517 0.79296,1.60645 0.79297,2.86426 -10e-6,1.23502 -0.27801,2.1875 -0.83399,2.85742 -0.55144,0.66992 -1.32845,1.00488 -2.33105,1.00488 -0.52865,0 -1.00489,-0.10937 -1.42871,-0.32812 -0.42383,-0.21875 -0.75879,-0.52865 -1.00489,-0.92969 l -0.0615,0 -0.19141,1.12109 -0.42382,0 0,-10.63672 0.67675,0 0,2.67286 c 0,0.40104 -0.009,0.77018 -0.0273,1.10742 l -0.0205,0.58105 0.0479,0 c 0.28255,-0.44661 0.62207,-0.77473 1.01856,-0.98437 0.40104,-0.20963 0.88183,-0.31445 1.44238,-0.31446 m -0.0137,0.61524 c -0.875,0 -1.50163,0.25066 -1.87988,0.75195 -0.37826,0.50131 -0.56739,1.32846 -0.56739,2.48145 l 0,0.11621 c 0,1.12109 0.19597,1.92545 0.5879,2.41308 0.39648,0.48763 1.01171,0.73145 1.8457,0.73145 0.81119,0 1.42187,-0.28255 1.83203,-0.84766 0.41015,-0.56966 0.61523,-1.37858 0.61523,-2.42676 0,-2.14647 -0.8112,-3.21971 -2.43359,-3.21972" />
  </g>
</svg>
